<mxfile host="65bd71144e">
    <diagram id="Y5JTKVb2kn05dm9f5OEC" name="サーバーサイド">
        <mxGraphModel dx="828" dy="1763" grid="1" gridSize="10" guides="1" tooltips="1" connect="1" arrows="1" fold="1" page="1" pageScale="1" pageWidth="827" pageHeight="1169" math="0" shadow="0">
            <root>
                <mxCell id="0"/>
                <mxCell id="1" parent="0"/>
                <mxCell id="3" value="&lt;b id=&quot;docs-internal-guid-3b6dd16b-7fff-8b48-4daa-020ab1e8d17d&quot; style=&quot;font-weight:normal;&quot;&gt;&lt;p style=&quot;line-height:1.2;margin-top:0pt;margin-bottom:0pt;&quot; dir=&quot;ltr&quot;&gt;&lt;span style=&quot;font-size: 14pt; font-family: Arial, sans-serif; color: rgb(0, 0, 0); background-color: transparent; font-weight: 400; font-style: normal; font-variant: normal; text-decoration: none; vertical-align: baseline;&quot;&gt;誤飲チェッカー&lt;/span&gt;&lt;/p&gt;&lt;p style=&quot;line-height:1.2;margin-top:0pt;margin-bottom:0pt;&quot; dir=&quot;ltr&quot;&gt;&lt;span style=&quot;font-size: 14pt; font-family: Arial, sans-serif; color: rgb(0, 0, 0); background-color: transparent; font-weight: 400; font-style: normal; font-variant: normal; text-decoration: none; vertical-align: baseline;&quot;&gt;～概要～&lt;/span&gt;&lt;/p&gt;&lt;p style=&quot;line-height:1.2;margin-top:0pt;margin-bottom:0pt;&quot; dir=&quot;ltr&quot;&gt;&lt;span style=&quot;font-size: 14pt; font-family: Arial, sans-serif; color: rgb(0, 0, 0); background-color: transparent; font-weight: 400; font-style: normal; font-variant: normal; text-decoration: none; vertical-align: baseline;&quot;&gt;・ログイン&lt;/span&gt;&lt;/p&gt;&lt;p style=&quot;line-height:1.2;margin-top:0pt;margin-bottom:0pt;&quot; dir=&quot;ltr&quot;&gt;&lt;span style=&quot;font-size: 14pt; font-family: Arial, sans-serif; color: rgb(0, 0, 0); background-color: transparent; font-weight: 400; font-style: normal; font-variant: normal; text-decoration: none; vertical-align: baseline;&quot;&gt;・ユーザー登録&lt;/span&gt;&lt;/p&gt;&lt;/b&gt;&lt;br class=&quot;Apple-interchange-newline&quot;&gt;" style="text;whiteSpace=wrap;html=1;fillColor=#FFFFFF;fillStyle=auto;strokeColor=#000000;" vertex="1" parent="1">
                    <mxGeometry x="210" y="92.5" width="180" height="110" as="geometry"/>
                </mxCell>
                <mxCell id="4" value="&lt;font color=&quot;#000000&quot;&gt;&lt;b id=&quot;docs-internal-guid-21acf6a6-7fff-77f1-2c6e-185b1052e381&quot; style=&quot;font-weight:normal;&quot;&gt;&lt;br&gt;&lt;br&gt;&lt;p style=&quot;line-height:1.2;margin-top:0pt;margin-bottom:0pt;&quot; dir=&quot;ltr&quot;&gt;&lt;span style=&quot;font-size: 11pt; font-family: Arial, sans-serif; background-color: transparent; font-weight: 400; font-style: normal; font-variant: normal; text-decoration: none; vertical-align: baseline;&quot;&gt;&amp;nbsp;&amp;nbsp;&amp;nbsp;&amp;nbsp;&amp;nbsp;&amp;nbsp;&amp;nbsp;&amp;nbsp;&amp;nbsp;&amp;nbsp;&amp;nbsp;&amp;nbsp;&amp;nbsp;&amp;nbsp;ID:&lt;/span&gt;&lt;/p&gt;&lt;p style=&quot;line-height:1.2;margin-top:0pt;margin-bottom:0pt;&quot; dir=&quot;ltr&quot;&gt;&lt;span style=&quot;font-size: 11pt; font-family: Arial, sans-serif; background-color: transparent; font-weight: 400; font-style: normal; font-variant: normal; text-decoration: none; vertical-align: baseline;&quot;&gt;パスワード：&lt;/span&gt;&lt;/p&gt;&lt;/b&gt;ログイン&lt;/font&gt;" style="text;whiteSpace=wrap;html=1;fillColor=#FFFFFF;" vertex="1" parent="1">
                    <mxGeometry x="230" y="510" width="140" height="105" as="geometry"/>
                </mxCell>
                <mxCell id="5" value="&lt;b id=&quot;docs-internal-guid-3c581ba8-7fff-e864-69db-70a686b552df&quot; style=&quot;font-weight: normal; font-size: 13px;&quot;&gt;&lt;font style=&quot;font-size: 13px;&quot;&gt;&lt;br&gt;&lt;p style=&quot;line-height: 1.2; margin-top: 0pt; margin-bottom: 0pt;&quot; dir=&quot;ltr&quot;&gt;&lt;span style=&quot;font-family: Arial, sans-serif; color: rgb(0, 0, 0); background-color: transparent; font-weight: 400; font-style: normal; font-variant: normal; text-decoration: none; vertical-align: baseline;&quot;&gt;メイン画面&lt;/span&gt;&lt;/p&gt;&lt;p style=&quot;line-height: 1.2; margin-top: 0pt; margin-bottom: 0pt;&quot; dir=&quot;ltr&quot;&gt;&lt;span style=&quot;font-family: Arial, sans-serif; color: rgb(0, 0, 0); background-color: transparent; font-weight: 400; font-style: normal; font-variant: normal; text-decoration: none; vertical-align: baseline;&quot;&gt;ユーザー名さんログイン中&lt;/span&gt;&lt;/p&gt;&lt;p style=&quot;line-height: 1.2; margin-top: 0pt; margin-bottom: 0pt;&quot; dir=&quot;ltr&quot;&gt;&lt;span style=&quot;font-family: Arial, sans-serif; color: rgb(0, 0, 0); background-color: transparent; font-weight: 400; font-style: normal; font-variant: normal; text-decoration: none; vertical-align: baseline;&quot;&gt;ペット名ちゃん&lt;/span&gt;&lt;/p&gt;&lt;p style=&quot;line-height: 1.2; margin-top: 0pt; margin-bottom: 0pt;&quot; dir=&quot;ltr&quot;&gt;&lt;span style=&quot;font-family: Arial, sans-serif; color: rgb(0, 0, 0); background-color: transparent; font-weight: 400; font-style: normal; font-variant: normal; text-decoration: none; vertical-align: baseline;&quot;&gt;〇歳〇か月&lt;/span&gt;&lt;/p&gt;&lt;p style=&quot;line-height: 1.2; margin-top: 0pt; margin-bottom: 0pt;&quot; dir=&quot;ltr&quot;&gt;&lt;span style=&quot;font-family: Arial, sans-serif; color: rgb(0, 0, 0); background-color: transparent; font-weight: 400; font-style: normal; font-variant: normal; text-decoration: none; vertical-align: baseline;&quot;&gt;食べちゃった物&lt;/span&gt;&lt;/p&gt;&lt;p style=&quot;line-height: 1.2; margin-top: 0pt; margin-bottom: 0pt;&quot; dir=&quot;ltr&quot;&gt;&lt;font face=&quot;Arial, sans-serif&quot; color=&quot;#000000&quot;&gt;ログアウト&lt;/font&gt;&lt;/p&gt;&lt;/font&gt;&lt;/b&gt;" style="text;whiteSpace=wrap;html=1;fillColor=#FFFFFF;" vertex="1" parent="1">
                    <mxGeometry x="580" y="519" width="180" height="130" as="geometry"/>
                </mxCell>
                <mxCell id="7" value="" style="endArrow=classic;html=1;fontSize=13;exitX=0.5;exitY=1;exitDx=0;exitDy=0;exitPerimeter=0;entryX=0.5;entryY=0;entryDx=0;entryDy=0;" edge="1" parent="1" source="3" target="18">
                    <mxGeometry width="50" height="50" relative="1" as="geometry">
                        <mxPoint x="290" y="212.5" as="sourcePoint"/>
                        <mxPoint x="300" y="250" as="targetPoint"/>
                    </mxGeometry>
                </mxCell>
                <mxCell id="8" value="&lt;font color=&quot;#000000&quot;&gt;Welcomeservlet&lt;/font&gt;" style="shape=ext;double=1;rounded=1;whiteSpace=wrap;html=1;labelBackgroundColor=#FFFFFF;fillStyle=auto;strokeColor=#000000;fontSize=13;fillColor=#FFFFFF;" vertex="1" parent="1">
                    <mxGeometry x="40" y="60" width="120" height="50" as="geometry"/>
                </mxCell>
                <mxCell id="10" value="&lt;font color=&quot;#000000&quot;&gt;Welcome.jsp&lt;/font&gt;" style="shape=ext;double=1;rounded=1;whiteSpace=wrap;html=1;labelBackgroundColor=#FFFFFF;fillStyle=auto;strokeColor=#000000;fontSize=13;fillColor=#FFFFFF;" vertex="1" parent="1">
                    <mxGeometry x="40" y="170" width="120" height="50" as="geometry"/>
                </mxCell>
                <mxCell id="12" value="" style="endArrow=classic;html=1;fontSize=13;exitX=0.5;exitY=1;exitDx=0;exitDy=0;exitPerimeter=0;" edge="1" parent="1">
                    <mxGeometry width="50" height="50" relative="1" as="geometry">
                        <mxPoint x="99.16999999999999" y="109.99999999999989" as="sourcePoint"/>
                        <mxPoint x="99" y="170" as="targetPoint"/>
                    </mxGeometry>
                </mxCell>
                <mxCell id="13" value="" style="endArrow=classic;html=1;fontSize=13;exitX=0.5;exitY=1;exitDx=0;exitDy=0;exitPerimeter=0;" edge="1" parent="1">
                    <mxGeometry width="50" height="50" relative="1" as="geometry">
                        <mxPoint x="99.69000000000007" y="-1.1368683772161603e-13" as="sourcePoint"/>
                        <mxPoint x="99.52" y="59.999999999999886" as="targetPoint"/>
                    </mxGeometry>
                </mxCell>
                <mxCell id="14" value="Get" style="text;strokeColor=none;fillColor=none;html=1;fontSize=24;fontStyle=1;verticalAlign=middle;align=center;labelBackgroundColor=#FFFFFF;fillStyle=auto;fontColor=#000000;" vertex="1" parent="1">
                    <mxGeometry x="90" y="20" width="100" height="40" as="geometry"/>
                </mxCell>
                <mxCell id="15" value="&lt;font style=&quot;font-size: 16px;&quot;&gt;フォワード&lt;/font&gt;" style="text;strokeColor=none;fillColor=none;html=1;fontSize=24;fontStyle=1;verticalAlign=middle;align=center;labelBackgroundColor=#FFFFFF;fillStyle=auto;fontColor=#000000;" vertex="1" parent="1">
                    <mxGeometry x="110" y="137.5" width="90" height="20" as="geometry"/>
                </mxCell>
                <mxCell id="16" value="" style="endArrow=classic;html=1;fontSize=13;exitX=0.5;exitY=1;exitDx=0;exitDy=0;exitPerimeter=0;" edge="1" parent="1" target="3">
                    <mxGeometry width="50" height="50" relative="1" as="geometry">
                        <mxPoint x="160.16999999999996" y="190" as="sourcePoint"/>
                        <mxPoint x="160" y="250" as="targetPoint"/>
                    </mxGeometry>
                </mxCell>
                <mxCell id="17" value="&lt;font style=&quot;font-size: 16px;&quot;&gt;レスポンス&lt;/font&gt;" style="text;strokeColor=none;fillColor=none;html=1;fontSize=24;fontStyle=1;verticalAlign=middle;align=center;labelBackgroundColor=#FFFFFF;fillStyle=auto;fontColor=#000000;" vertex="1" parent="1">
                    <mxGeometry x="150" y="230" width="90" height="20" as="geometry"/>
                </mxCell>
                <mxCell id="18" value="&lt;font color=&quot;#000000&quot;&gt;LoginServlet&lt;/font&gt;" style="shape=ext;double=1;rounded=1;whiteSpace=wrap;html=1;labelBackgroundColor=#FFFFFF;fillStyle=auto;strokeColor=#000000;fontSize=13;fillColor=#FFFFFF;" vertex="1" parent="1">
                    <mxGeometry x="240" y="360" width="120" height="40" as="geometry"/>
                </mxCell>
                <mxCell id="21" value="&lt;font color=&quot;#000000&quot;&gt;login.jsp&lt;/font&gt;" style="shape=ext;double=1;rounded=1;whiteSpace=wrap;html=1;labelBackgroundColor=#FFFFFF;fillStyle=auto;strokeColor=#000000;fontSize=13;fillColor=#FFFFFF;" vertex="1" parent="1">
                    <mxGeometry x="245" y="440" width="110" height="30" as="geometry"/>
                </mxCell>
                <mxCell id="22" value="" style="endArrow=classic;html=1;fontSize=13;exitX=0.5;exitY=1;exitDx=0;exitDy=0;exitPerimeter=0;entryX=0.5;entryY=0;entryDx=0;entryDy=0;" edge="1" parent="1">
                    <mxGeometry width="50" height="50" relative="1" as="geometry">
                        <mxPoint x="299.73" y="469.9999999999998" as="sourcePoint"/>
                        <mxPoint x="300" y="510" as="targetPoint"/>
                    </mxGeometry>
                </mxCell>
                <mxCell id="23" value="&lt;span style=&quot;font-size: 14px;&quot;&gt;ログインをクリック&lt;/span&gt;" style="text;strokeColor=none;fillColor=none;html=1;fontSize=24;fontStyle=1;verticalAlign=middle;align=center;labelBackgroundColor=#FFFFFF;fillStyle=auto;fontColor=#000000;" vertex="1" parent="1">
                    <mxGeometry x="300" y="210" width="130" height="20" as="geometry"/>
                </mxCell>
                <mxCell id="24" value="" style="endArrow=classic;html=1;fontSize=13;exitX=0.5;exitY=1;exitDx=0;exitDy=0;exitPerimeter=0;entryX=0.5;entryY=0;entryDx=0;entryDy=0;" edge="1" parent="1">
                    <mxGeometry width="50" height="50" relative="1" as="geometry">
                        <mxPoint x="300" y="399.9999999999998" as="sourcePoint"/>
                        <mxPoint x="300.27" y="440" as="targetPoint"/>
                    </mxGeometry>
                </mxCell>
                <mxCell id="25" value="&lt;font style=&quot;font-size: 16px;&quot;&gt;フォワード&lt;/font&gt;" style="text;strokeColor=none;fillColor=none;html=1;fontSize=24;fontStyle=1;verticalAlign=middle;align=center;labelBackgroundColor=#FFFFFF;fillStyle=auto;fontColor=#000000;" vertex="1" parent="1">
                    <mxGeometry x="300" y="410" width="90" height="20" as="geometry"/>
                </mxCell>
                <mxCell id="26" value="Get" style="text;strokeColor=none;fillColor=none;html=1;fontSize=24;fontStyle=1;verticalAlign=middle;align=center;labelBackgroundColor=#FFFFFF;fillStyle=auto;fontColor=#000000;" vertex="1" parent="1">
                    <mxGeometry x="280" y="320" width="100" height="40" as="geometry"/>
                </mxCell>
                <mxCell id="27" value="&lt;font style=&quot;font-size: 16px;&quot;&gt;レスポンス&lt;/font&gt;" style="text;strokeColor=none;fillColor=none;html=1;fontSize=24;fontStyle=1;verticalAlign=middle;align=center;labelBackgroundColor=#FFFFFF;fillStyle=auto;fontColor=#000000;" vertex="1" parent="1">
                    <mxGeometry x="300" y="480" width="90" height="20" as="geometry"/>
                </mxCell>
                <mxCell id="29" value="&lt;font color=&quot;#000000&quot;&gt;LoginServlet&lt;/font&gt;" style="shape=ext;double=1;rounded=1;whiteSpace=wrap;html=1;labelBackgroundColor=#FFFFFF;fillStyle=auto;strokeColor=#000000;fontSize=13;fillColor=#FFFFFF;" vertex="1" parent="1">
                    <mxGeometry x="500" y="290" width="120" height="30" as="geometry"/>
                </mxCell>
                <mxCell id="32" value="" style="edgeStyle=elbowEdgeStyle;elbow=horizontal;endArrow=classic;html=1;curved=0;rounded=0;endSize=8;startSize=8;fontSize=14;fontColor=#000000;entryX=0;entryY=0.5;entryDx=0;entryDy=0;" edge="1" parent="1" target="29">
                    <mxGeometry width="50" height="50" relative="1" as="geometry">
                        <mxPoint x="370" y="570" as="sourcePoint"/>
                        <mxPoint x="490" y="410" as="targetPoint"/>
                        <Array as="points">
                            <mxPoint x="440" y="490"/>
                        </Array>
                    </mxGeometry>
                </mxCell>
                <mxCell id="34" value="&lt;span style=&quot;font-size: 14px;&quot;&gt;ログインをクリック&lt;/span&gt;" style="text;strokeColor=none;fillColor=none;html=1;fontSize=24;fontStyle=1;verticalAlign=middle;align=center;labelBackgroundColor=#FFFFFF;fillStyle=auto;fontColor=#000000;" vertex="1" parent="1">
                    <mxGeometry x="370" y="585" width="130" height="20" as="geometry"/>
                </mxCell>
                <mxCell id="35" value="&lt;font style=&quot;font-size: 12px;&quot; color=&quot;#000000&quot;&gt;userId&lt;br&gt;pass&lt;br&gt;リクエスト&lt;br&gt;パラメータ&lt;br&gt;&lt;/font&gt;" style="shape=ext;double=1;rounded=1;whiteSpace=wrap;html=1;labelBackgroundColor=#FFFFFF;fillStyle=auto;strokeColor=#000000;fontSize=13;fillColor=#FFFFFF;" vertex="1" parent="1">
                    <mxGeometry x="450" y="320" width="70" height="80" as="geometry"/>
                </mxCell>
                <mxCell id="36" value="&lt;font color=&quot;#000000&quot;&gt;loginOK.jsp&lt;/font&gt;" style="shape=ext;double=1;rounded=1;whiteSpace=wrap;html=1;labelBackgroundColor=#FFFFFF;fillStyle=auto;strokeColor=#000000;fontSize=13;fillColor=#FFFFFF;" vertex="1" parent="1">
                    <mxGeometry x="500" y="405" width="120" height="30" as="geometry"/>
                </mxCell>
                <mxCell id="37" value="" style="endArrow=classic;html=1;fontSize=13;exitX=0.5;exitY=1;exitDx=0;exitDy=0;exitPerimeter=0;" edge="1" parent="1">
                    <mxGeometry width="50" height="50" relative="1" as="geometry">
                        <mxPoint x="559.44" y="322.5" as="sourcePoint"/>
                        <mxPoint x="559" y="400" as="targetPoint"/>
                    </mxGeometry>
                </mxCell>
                <mxCell id="38" value="&lt;span style=&quot;font-size: 14px;&quot;&gt;ログイン成功&lt;br&gt;フォワード&lt;br&gt;&lt;/span&gt;" style="text;strokeColor=none;fillColor=none;html=1;fontSize=24;fontStyle=1;verticalAlign=middle;align=center;labelBackgroundColor=#FFFFFF;fillStyle=auto;fontColor=#000000;" vertex="1" parent="1">
                    <mxGeometry x="550" y="350" width="130" height="20" as="geometry"/>
                </mxCell>
                <mxCell id="39" value="" style="endArrow=classic;html=1;fontSize=13;exitX=0.5;exitY=1;exitDx=0;exitDy=0;exitPerimeter=0;" edge="1" parent="1" target="5">
                    <mxGeometry width="50" height="50" relative="1" as="geometry">
                        <mxPoint x="559.4400000000003" y="435" as="sourcePoint"/>
                        <mxPoint x="560" y="592.5" as="targetPoint"/>
                    </mxGeometry>
                </mxCell>
                <mxCell id="40" value="&lt;font style=&quot;font-size: 16px;&quot;&gt;レスポンス&lt;/font&gt;" style="text;strokeColor=none;fillColor=none;html=1;fontSize=24;fontStyle=1;verticalAlign=middle;align=center;labelBackgroundColor=#FFFFFF;fillStyle=auto;fontColor=#000000;" vertex="1" parent="1">
                    <mxGeometry x="580" y="450" width="90" height="20" as="geometry"/>
                </mxCell>
                <mxCell id="41" value="" style="edgeStyle=elbowEdgeStyle;elbow=horizontal;endArrow=classic;html=1;curved=0;rounded=0;endSize=8;startSize=8;fontSize=14;fontColor=#000000;entryX=0;entryY=0.5;entryDx=0;entryDy=0;" edge="1" parent="1" target="8">
                    <mxGeometry width="50" height="50" relative="1" as="geometry">
                        <mxPoint x="570" y="630" as="sourcePoint"/>
                        <mxPoint x="40" y="315" as="targetPoint"/>
                        <Array as="points">
                            <mxPoint x="20" y="480"/>
                            <mxPoint x="90" y="600"/>
                            <mxPoint x="90" y="470"/>
                        </Array>
                    </mxGeometry>
                </mxCell>
                <mxCell id="42" value="Get" style="text;strokeColor=none;fillColor=none;html=1;fontSize=24;fontStyle=1;verticalAlign=middle;align=center;labelBackgroundColor=#FFFFFF;fillStyle=auto;fontColor=#000000;" vertex="1" parent="1">
                    <mxGeometry y="40" width="60" height="20" as="geometry"/>
                </mxCell>
                <mxCell id="43" value="&lt;span style=&quot;font-size: 14px;&quot;&gt;ログアウトをクリック&lt;/span&gt;" style="text;strokeColor=none;fillColor=none;html=1;fontSize=24;fontStyle=1;verticalAlign=middle;align=center;labelBackgroundColor=#FFFFFF;fillStyle=auto;fontColor=#000000;" vertex="1" parent="1">
                    <mxGeometry x="440" y="649" width="130" height="20" as="geometry"/>
                </mxCell>
                <mxCell id="44" value="" style="edgeStyle=elbowEdgeStyle;elbow=horizontal;endArrow=classic;html=1;curved=0;rounded=0;endSize=8;startSize=8;fontSize=14;fontColor=#000000;entryX=0;entryY=0.25;entryDx=0;entryDy=0;startArrow=none;" edge="1" parent="1" target="4">
                    <mxGeometry width="50" height="50" relative="1" as="geometry">
                        <mxPoint x="70" y="490" as="sourcePoint"/>
                        <mxPoint x="50" y="95" as="targetPoint"/>
                        <Array as="points">
                            <mxPoint x="100" y="610"/>
                            <mxPoint x="100" y="480"/>
                        </Array>
                    </mxGeometry>
                </mxCell>
                <mxCell id="47" value="" style="edgeStyle=elbowEdgeStyle;elbow=horizontal;endArrow=none;html=1;curved=0;rounded=0;endSize=8;startSize=8;fontSize=14;fontColor=#000000;exitX=0;exitY=0.75;exitDx=0;exitDy=0;" edge="1" parent="1" source="4">
                    <mxGeometry width="50" height="50" relative="1" as="geometry">
                        <mxPoint x="230" y="588.75" as="sourcePoint"/>
                        <mxPoint x="70" y="490" as="targetPoint"/>
                        <Array as="points">
                            <mxPoint x="70" y="563"/>
                        </Array>
                    </mxGeometry>
                </mxCell>
                <mxCell id="45" value="&lt;span style=&quot;font-size: 11px;&quot;&gt;ログイン失敗&lt;br&gt;エラーメッセージ&lt;br&gt;&lt;/span&gt;" style="text;strokeColor=none;fillColor=none;html=1;fontSize=24;fontStyle=1;verticalAlign=middle;align=center;labelBackgroundColor=#FFFFFF;fillStyle=auto;fontColor=#000000;" vertex="1" parent="1">
                    <mxGeometry x="20" y="510" width="140" height="10" as="geometry"/>
                </mxCell>
                <mxCell id="48" value="&lt;font style=&quot;font-size: 13px;&quot;&gt;ユーザーID&lt;/font&gt;" style="shape=ext;double=1;rounded=1;whiteSpace=wrap;html=1;labelBackgroundColor=none;fillStyle=auto;strokeColor=#006EAF;fontSize=10;fontColor=#ffffff;fillColor=#1ba1e2;" vertex="1" parent="1">
                    <mxGeometry x="690" y="350" width="120" height="80" as="geometry"/>
                </mxCell>
                <mxCell id="49" value="&lt;span style=&quot;font-size: 16px;&quot;&gt;&quot;userId&quot;&lt;/span&gt;" style="text;strokeColor=none;fillColor=none;html=1;fontSize=24;fontStyle=1;verticalAlign=middle;align=center;labelBackgroundColor=#FFFFFF;fillStyle=auto;fontColor=#000000;" vertex="1" parent="1">
                    <mxGeometry x="705" y="405" width="90" height="20" as="geometry"/>
                </mxCell>
                <mxCell id="50" value="&lt;span style=&quot;font-size: 13px;&quot;&gt;セッション&lt;br&gt;スコープ&lt;br&gt;&lt;/span&gt;" style="text;strokeColor=none;fillColor=none;html=1;fontSize=24;fontStyle=1;verticalAlign=middle;align=center;labelBackgroundColor=#FFFFFF;fillStyle=auto;fontColor=#000000;" vertex="1" parent="1">
                    <mxGeometry x="705" y="450" width="90" height="20" as="geometry"/>
                </mxCell>
                <mxCell id="51" value="" style="endArrow=classic;html=1;fontSize=13;exitX=0.5;exitY=1;exitDx=0;exitDy=0;exitPerimeter=0;entryX=0.5;entryY=0;entryDx=0;entryDy=0;" edge="1" parent="1" target="48">
                    <mxGeometry width="50" height="50" relative="1" as="geometry">
                        <mxPoint x="620.0000000000002" y="310" as="sourcePoint"/>
                        <mxPoint x="682.3291275167785" y="394" as="targetPoint"/>
                    </mxGeometry>
                </mxCell>
                <mxCell id="52" value="" style="curved=1;endArrow=classic;html=1;fontSize=13;fontColor=#000000;exitX=1.025;exitY=0.32;exitDx=0;exitDy=0;exitPerimeter=0;" edge="1" parent="1" source="36">
                    <mxGeometry width="50" height="50" relative="1" as="geometry">
                        <mxPoint x="670" y="430" as="sourcePoint"/>
                        <mxPoint x="630" y="430" as="targetPoint"/>
                        <Array as="points">
                            <mxPoint x="640" y="400"/>
                            <mxPoint x="650" y="390"/>
                            <mxPoint x="690" y="370"/>
                            <mxPoint x="700" y="390"/>
                            <mxPoint x="670" y="430"/>
                        </Array>
                    </mxGeometry>
                </mxCell>
            </root>
        </mxGraphModel>
    </diagram>
    <diagram id="AvDSxn6higEaz-NHteqk" name="ログイン">
        <mxGraphModel dx="1655" dy="594" grid="1" gridSize="10" guides="1" tooltips="1" connect="1" arrows="1" fold="1" page="1" pageScale="1" pageWidth="827" pageHeight="1169" math="0" shadow="0">
            <root>
                <mxCell id="0"/>
                <mxCell id="1" parent="0"/>
                <mxCell id="hDkCtDsoFMQiuH8LnFd_-1" value="userId＝入力値&lt;br&gt;pass=入力値" style="rounded=1;whiteSpace=wrap;html=1;labelBackgroundColor=none;fillStyle=auto;strokeColor=#000000;fontSize=13;fontColor=#000000;fillColor=#FFFFFF;gradientColor=none;" vertex="1" parent="1">
                    <mxGeometry x="50" y="40" width="120" height="60" as="geometry"/>
                </mxCell>
                <mxCell id="KouGo4jEA8oYEcbTqiiR-1" value="" style="endArrow=classic;html=1;fontSize=13;fontColor=#000000;entryX=0;entryY=0.5;entryDx=0;entryDy=0;" edge="1" parent="1" target="hDkCtDsoFMQiuH8LnFd_-1">
                    <mxGeometry width="50" height="50" relative="1" as="geometry">
                        <mxPoint y="69.5" as="sourcePoint"/>
                        <mxPoint x="40" y="69.5" as="targetPoint"/>
                    </mxGeometry>
                </mxCell>
                <mxCell id="KouGo4jEA8oYEcbTqiiR-2" value="POST" style="text;html=1;strokeColor=none;fillColor=none;align=center;verticalAlign=middle;whiteSpace=wrap;rounded=0;labelBackgroundColor=none;fillStyle=auto;fontSize=13;fontColor=#33FFFF;" vertex="1" parent="1">
                    <mxGeometry x="80" y="10" width="60" height="30" as="geometry"/>
                </mxCell>
                <mxCell id="KouGo4jEA8oYEcbTqiiR-3" value="" style="endArrow=classic;html=1;fontSize=13;fontColor=#000000;entryX=0;entryY=0.5;entryDx=0;entryDy=0;" edge="1" parent="1">
                    <mxGeometry width="50" height="50" relative="1" as="geometry">
                        <mxPoint x="170" y="69.5" as="sourcePoint"/>
                        <mxPoint x="220" y="70" as="targetPoint"/>
                    </mxGeometry>
                </mxCell>
                <mxCell id="KouGo4jEA8oYEcbTqiiR-4" value="LoginServlet&lt;br&gt;doPost()" style="rounded=1;whiteSpace=wrap;html=1;labelBackgroundColor=none;fillStyle=auto;strokeColor=#000000;fontSize=13;fontColor=#000000;fillColor=#FFFFFF;gradientColor=none;" vertex="1" parent="1">
                    <mxGeometry x="220" y="40" width="120" height="60" as="geometry"/>
                </mxCell>
                <mxCell id="KouGo4jEA8oYEcbTqiiR-6" value="" style="endArrow=classic;html=1;fontSize=13;fontColor=#000000;" edge="1" parent="1">
                    <mxGeometry width="50" height="50" relative="1" as="geometry">
                        <mxPoint x="340" y="60" as="sourcePoint"/>
                        <mxPoint x="430" y="60" as="targetPoint"/>
                    </mxGeometry>
                </mxCell>
                <mxCell id="KouGo4jEA8oYEcbTqiiR-7" value="LoginLogic&lt;br&gt;execute()" style="rounded=1;whiteSpace=wrap;html=1;labelBackgroundColor=none;fillStyle=auto;strokeColor=#000000;fontSize=13;fontColor=#000000;fillColor=#FFFFFF;gradientColor=none;" vertex="1" parent="1">
                    <mxGeometry x="430" y="40" width="120" height="60" as="geometry"/>
                </mxCell>
                <mxCell id="KouGo4jEA8oYEcbTqiiR-8" value="Login" style="text;html=1;strokeColor=none;fillColor=none;align=center;verticalAlign=middle;whiteSpace=wrap;rounded=0;labelBackgroundColor=none;fillStyle=auto;fontSize=13;fontColor=#33FFFF;" vertex="1" parent="1">
                    <mxGeometry x="350" y="20" width="60" height="30" as="geometry"/>
                </mxCell>
                <mxCell id="KouGo4jEA8oYEcbTqiiR-9" value="true" style="text;html=1;strokeColor=none;fillColor=none;align=center;verticalAlign=middle;whiteSpace=wrap;rounded=0;labelBackgroundColor=none;fillStyle=auto;fontSize=13;fontColor=#33FFFF;" vertex="1" parent="1">
                    <mxGeometry x="353.5" y="90" width="60" height="30" as="geometry"/>
                </mxCell>
                <mxCell id="KouGo4jEA8oYEcbTqiiR-10" value="" style="endArrow=classic;html=1;fontSize=13;fontColor=#000000;entryX=1.008;entryY=0.617;entryDx=0;entryDy=0;entryPerimeter=0;exitX=-0.002;exitY=0.625;exitDx=0;exitDy=0;exitPerimeter=0;" edge="1" parent="1" source="KouGo4jEA8oYEcbTqiiR-7" target="KouGo4jEA8oYEcbTqiiR-4">
                    <mxGeometry width="50" height="50" relative="1" as="geometry">
                        <mxPoint x="350" y="70" as="sourcePoint"/>
                        <mxPoint x="440" y="70" as="targetPoint"/>
                        <Array as="points">
                            <mxPoint x="380" y="77"/>
                        </Array>
                    </mxGeometry>
                </mxCell>
                <mxCell id="KouGo4jEA8oYEcbTqiiR-11" value="BO" style="text;html=1;strokeColor=none;fillColor=none;align=center;verticalAlign=middle;whiteSpace=wrap;rounded=0;labelBackgroundColor=none;fillStyle=auto;fontSize=13;fontColor=#33FFFF;" vertex="1" parent="1">
                    <mxGeometry x="460" y="10" width="60" height="30" as="geometry"/>
                </mxCell>
                <mxCell id="KouGo4jEA8oYEcbTqiiR-12" value="AccountsDAO&lt;br&gt;findByLogin()" style="rounded=1;whiteSpace=wrap;html=1;labelBackgroundColor=none;fillStyle=auto;strokeColor=#000000;fontSize=13;fontColor=#000000;fillColor=#FFFFFF;gradientColor=none;" vertex="1" parent="1">
                    <mxGeometry x="630" y="40" width="120" height="60" as="geometry"/>
                </mxCell>
                <mxCell id="KouGo4jEA8oYEcbTqiiR-13" value="" style="endArrow=classic;html=1;fontSize=13;fontColor=#000000;" edge="1" parent="1">
                    <mxGeometry width="50" height="50" relative="1" as="geometry">
                        <mxPoint x="550" y="60" as="sourcePoint"/>
                        <mxPoint x="630" y="60" as="targetPoint"/>
                    </mxGeometry>
                </mxCell>
                <mxCell id="KouGo4jEA8oYEcbTqiiR-14" value="Login" style="text;html=1;strokeColor=none;fillColor=none;align=center;verticalAlign=middle;whiteSpace=wrap;rounded=0;labelBackgroundColor=none;fillStyle=auto;fontSize=13;fontColor=#33FFFF;" vertex="1" parent="1">
                    <mxGeometry x="560" y="20" width="60" height="30" as="geometry"/>
                </mxCell>
                <mxCell id="KouGo4jEA8oYEcbTqiiR-15" value="Account" style="text;html=1;strokeColor=none;fillColor=none;align=center;verticalAlign=middle;whiteSpace=wrap;rounded=0;labelBackgroundColor=none;fillStyle=auto;fontSize=13;fontColor=#33FFFF;" vertex="1" parent="1">
                    <mxGeometry x="560" y="90" width="60" height="30" as="geometry"/>
                </mxCell>
                <mxCell id="KouGo4jEA8oYEcbTqiiR-16" value="" style="endArrow=classic;html=1;fontSize=13;fontColor=#000000;entryX=1.008;entryY=0.617;entryDx=0;entryDy=0;entryPerimeter=0;" edge="1" parent="1">
                    <mxGeometry width="50" height="50" relative="1" as="geometry">
                        <mxPoint x="630" y="80" as="sourcePoint"/>
                        <mxPoint x="550" y="80.01999999999998" as="targetPoint"/>
                        <Array as="points">
                            <mxPoint x="589.04" y="80"/>
                        </Array>
                    </mxGeometry>
                </mxCell>
                <mxCell id="KouGo4jEA8oYEcbTqiiR-17" value="" style="endArrow=classic;startArrow=classic;html=1;fontSize=13;fontColor=#33FFFF;" edge="1" parent="1" target="KouGo4jEA8oYEcbTqiiR-18">
                    <mxGeometry width="50" height="50" relative="1" as="geometry">
                        <mxPoint x="690" y="100" as="sourcePoint"/>
                        <mxPoint x="669.5" y="80" as="targetPoint"/>
                    </mxGeometry>
                </mxCell>
                <mxCell id="KouGo4jEA8oYEcbTqiiR-18" value="&lt;font color=&quot;#ff3333&quot;&gt;ACCOUNTS&lt;br&gt;テーブル&lt;/font&gt;" style="shape=cylinder3;whiteSpace=wrap;html=1;boundedLbl=1;backgroundOutline=1;size=15;labelBackgroundColor=none;fillStyle=auto;strokeColor=#000000;fontSize=13;fontColor=#33FFFF;fillColor=#FFFFFF;gradientColor=none;" vertex="1" parent="1">
                    <mxGeometry x="720" y="150" width="90" height="80" as="geometry"/>
                </mxCell>
                <mxCell id="KouGo4jEA8oYEcbTqiiR-19" value="" style="shape=callout;whiteSpace=wrap;html=1;perimeter=calloutPerimeter;labelBackgroundColor=none;fillStyle=auto;strokeColor=#000000;fontSize=13;fontColor=#FF3333;fillColor=#FFFFFF;gradientColor=none;base=20;rotation=-180;size=25;position=0.42;" vertex="1" parent="1">
                    <mxGeometry x="590" y="100" width="120" height="85" as="geometry"/>
                </mxCell>
                <mxCell id="KouGo4jEA8oYEcbTqiiR-20" value="&lt;font color=&quot;#000000&quot;&gt;Loginに格納された&lt;br&gt;userIdとpassで検索&lt;br&gt;&lt;/font&gt;" style="text;html=1;strokeColor=none;fillColor=none;align=center;verticalAlign=middle;whiteSpace=wrap;rounded=0;labelBackgroundColor=none;fillStyle=auto;fontSize=13;fontColor=#33FFFF;" vertex="1" parent="1">
                    <mxGeometry x="590" y="130" width="120" height="50" as="geometry"/>
                </mxCell>
                <mxCell id="KouGo4jEA8oYEcbTqiiR-24" value="" style="shape=callout;whiteSpace=wrap;html=1;perimeter=calloutPerimeter;labelBackgroundColor=none;fillStyle=auto;strokeColor=#000000;fontSize=13;fontColor=#FF3333;fillColor=#FFFFFF;gradientColor=none;base=20;rotation=-180;size=25;position=0.42;" vertex="1" parent="1">
                    <mxGeometry x="430" y="100" width="120" height="145" as="geometry"/>
                </mxCell>
                <mxCell id="KouGo4jEA8oYEcbTqiiR-22" value="&lt;font color=&quot;#000000&quot;&gt;[フィールド]&lt;br&gt;・Stirng userId&lt;br&gt;・String pass&lt;br&gt;・String petName&amp;nbsp;&lt;br&gt;・String animals&lt;br&gt;・LocalDate petBd&lt;br&gt;&lt;br&gt;&lt;/font&gt;" style="text;html=1;strokeColor=none;fillColor=none;align=center;verticalAlign=middle;whiteSpace=wrap;rounded=0;labelBackgroundColor=none;fillStyle=auto;fontSize=13;fontColor=#33FFFF;" vertex="1" parent="1">
                    <mxGeometry x="430" y="165" width="120" height="50" as="geometry"/>
                </mxCell>
            </root>
        </mxGraphModel>
    </diagram>
</mxfile>